<svg xmlns="http://www.w3.org/2000/svg" viewBox="0 0 512 512">
  <defs>
    <linearGradient id="bg" x1="0" y1="0" x2="0" y2="1">
      <stop offset="0" stop-color="#3987e5"/>
      <stop offset="1" stop-color="#1c5cab"/>
    </linearGradient>
  </defs>
  <rect width="512" height="512" fill="url(#bg)"/>
  <!-- sleeping cat head -->
  <path d="M128 300 C128 244 138 214 152 194 L144 112 L224 168 Q256 160 288 168 L368 112 L360 194 C374 214 384 244 384 300 C384 368 328 408 256 408 C184 408 128 368 128 300 Z"
        fill="#ffffff" stroke="#ffffff" stroke-width="20" stroke-linejoin="round"/>
  <!-- closed eyes -->
  <path d="M178 286 Q204 310 230 286 M282 286 Q308 310 334 286" fill="none" stroke="#1c5cab" stroke-width="15" stroke-linecap="round"/>
  <!-- nose -->
  <path d="M243 326 L269 326 L256 340 Z" fill="#1c5cab" stroke="#1c5cab" stroke-width="8" stroke-linejoin="round"/>
</svg>
